<svg id="レイヤー_1" data-name="レイヤー 1" xmlns="http://www.w3.org/2000/svg" viewBox="0 0 720.4 211.69"><defs><style>.cls-1{fill:#21538e;}.cls-2{fill:#fff;}</style></defs><path class="cls-1" d="M418.34,603.62a6.57,6.57,0,0,1-2.93-.92,9.77,9.77,0,0,0-3.09-1.24,5.23,5.23,0,0,1-3.24-.77l-3.4-2.16a24.87,24.87,0,0,1-7.88-10.2,41.21,41.21,0,0,1-3.09-6.79,30.33,30.33,0,0,1-1.39-8.19q-.61-4-.92-8.18a72.55,72.55,0,0,1,.15-8.34,50.35,50.35,0,0,1,5.87-28.42,24.18,24.18,0,0,1,10.66-8.5c2.36-1,4.78-1.95,7.26-2.78a49.29,49.29,0,0,1,8-1.23h3.55a28.07,28.07,0,0,0,3.86-.62,17.85,17.85,0,0,1,6.8,2,12.23,12.23,0,0,0,3.24,1.08,4.84,4.84,0,0,1,1.85,1.39,17.25,17.25,0,0,0,2.78,1.23,30.44,30.44,0,0,0,2.94,2,22.87,22.87,0,0,1,7.26,10.5q2.93,6-1.08,10.82a7.5,7.5,0,0,1-6.18,1.54h-3.55a10.08,10.08,0,0,1-3.87-.77,12.6,12.6,0,0,1-4.47-8.5,20.62,20.62,0,0,0-6.34-10.65A10.82,10.82,0,0,0,425,524.7a12.13,12.13,0,0,0-6.49,3.24,42.29,42.29,0,0,0-4.17,4.48,24.36,24.36,0,0,0-2.94,7,65,65,0,0,0-1.7,16.07,60.65,60.65,0,0,0,.47,7.56q0,4,.31,7.88a23.18,23.18,0,0,0,2.31,6.8,41.81,41.81,0,0,0,3.4,6.79,9.13,9.13,0,0,0,2,2.47,13.89,13.89,0,0,1,2.16,2,12.6,12.6,0,0,0,6.8,3.4q6.48,1.54,10-4.33a36.22,36.22,0,0,0,1.7-14.51,6.44,6.44,0,0,1,2.47-5.26,9.09,9.09,0,0,1,3.39-.61l4.48-.62a11.25,11.25,0,0,1,7.26,2.63,7.86,7.86,0,0,1,2.17,7,30.55,30.55,0,0,1-7.11,16.68,37.56,37.56,0,0,1-15.29,7.56,54.38,54.38,0,0,1-8,1.24A80.54,80.54,0,0,1,418.34,603.62Z" transform="translate(-312.98 -405.38)"/><path class="cls-1" d="M527.08,603.62q-2.79-.45-5.56-.77a5.25,5.25,0,0,1-2.47-3.24,59.51,59.51,0,0,0-2.32-7.26c-.41-1-1-1.24-1.7-.62q-1.54,2.16-3.24,4.17a27.22,27.22,0,0,1-5.72,2.94,5.57,5.57,0,0,1-4.79,1.54,2.28,2.28,0,0,1-2.78,1.08c-1.13.1-2.26.26-3.39.46a26.05,26.05,0,0,1-3.71,1.24,14.91,14.91,0,0,1-12.2-4.63,35.49,35.49,0,0,1-7.26-25,112.54,112.54,0,0,1,1.39-31.67A71.8,71.8,0,0,1,479.66,527a37.08,37.08,0,0,1,3.71-6.18,25.31,25.31,0,0,1,5.87-4.33,10.58,10.58,0,0,1,6.33-2q3.71,0,7.72-.16a33.72,33.72,0,0,1,7.11.77,23.16,23.16,0,0,1,17.29,12.36q3.25,6,6,12.36a11.65,11.65,0,0,1,.93,2.62v3.86q-.78,4-1.7,7.88a116.73,116.73,0,0,0,0,17.14,50,50,0,0,0,.92,7.88q.32,4.49.93,8.65a46.71,46.71,0,0,0,2.47,7.26,6.16,6.16,0,0,1-1.08,6.64,8.28,8.28,0,0,1-4.33.93,7.08,7.08,0,0,0-2.16,0A11.16,11.16,0,0,1,527.08,603.62ZM500.67,590.5a40.74,40.74,0,0,0,4.48-6.18,28.07,28.07,0,0,0,3.39-7.11q.78-3.71,1.39-7.56c.62-3,1.24-5.92,1.86-8.81l1.23-8a54.56,54.56,0,0,0,1.24-8.34,23.79,23.79,0,0,0-4.64-13.75,29,29,0,0,0-4.78-4.63c-1.55-1.85-3.25-2.37-5.1-1.54a24.27,24.27,0,0,0-3.55,5.25,46,46,0,0,1-3.71,5.71A35.89,35.89,0,0,0,489.55,549a116.14,116.14,0,0,0-.31,17,48,48,0,0,0,2.62,18.38Q493.87,591.73,500.67,590.5Z" transform="translate(-312.98 -405.38)"/><path class="cls-1" d="M586.39,602.23a26.58,26.58,0,0,0-4-.61,5.66,5.66,0,0,1-2.93-.16,6,6,0,0,1-1.55-4.94A65.09,65.09,0,0,0,573,581.23c-.83-2.27-1.6-4.53-2.32-6.8a36.68,36.68,0,0,1-2.32-7.41q-2.16-7.87-5.09-15.75t-6.33-15.45c-1-2.37-2.12-4.73-3.25-7.1a34.71,34.71,0,0,1-3.4-7.42,3.88,3.88,0,0,1,1.7-4.94,8.87,8.87,0,0,1,5.41-.46,33.25,33.25,0,0,0,7.1.46,6.36,6.36,0,0,1,6.18,1.85,18.43,18.43,0,0,1,1.08,4.33,1.46,1.46,0,0,0,.93,1.23,1.82,1.82,0,0,1,1.08,1.86,25.23,25.23,0,0,0,1.7,4.94c.93,2.47,1.85,4.89,2.78,7.26A157.28,157.28,0,0,1,583.61,553c.71,2.58,1.49,5.15,2.31,7.73a9,9,0,0,0,1.86,3.86c1.33-.1,2.1-1,2.31-2.63q1.24-4.17,2.47-8.34,2.63-8,5.25-16.37,2.18-7.56,4.33-15.14a4.66,4.66,0,0,1,3.55-4,35.43,35.43,0,0,1,7.42.15,56.27,56.27,0,0,0,6,.31,4.09,4.09,0,0,1,4,3.09,11.61,11.61,0,0,1-1.23,5.25q-1.39,3.09-2.47,6.18a15.13,15.13,0,0,1-.93,2.78,20.8,20.8,0,0,0-.93,3.55q-1.23,3.71-2.62,7.26-2.33,7.26-4.79,14.21a187.84,187.84,0,0,0-8.34,27.8,17.66,17.66,0,0,1-4.94,11.43C593.39,600.89,589.88,601.62,586.39,602.23Z" transform="translate(-312.98 -405.38)"/><path class="cls-1" d="M659.75,604.55a36.36,36.36,0,0,1-5.56-1.08c.2.1.31,0,.31-.15a4.67,4.67,0,0,0-3.09-.78,12,12,0,0,1-6-3.7,29.09,29.09,0,0,1-4.63-4.79,37,37,0,0,1-3.55-7.26,36.23,36.23,0,0,1-2.32-7.57,38.72,38.72,0,0,1-.61-8.49c-.31-2.58-.57-5.2-.78-7.88a50.91,50.91,0,0,1,.16-8.8,53.83,53.83,0,0,1,9-28.42q2.46-2.48,5.25-4.79a33,33,0,0,1,2.78-2.47c1-.52,2.21-1.08,3.55-1.7a25.61,25.61,0,0,1,6.95-1.55,30.14,30.14,0,0,1,8,.47,47.12,47.12,0,0,1,11.58,2,9.65,9.65,0,0,1,4.64,2.78,4.21,4.21,0,0,0,2,1.54q1.08,1.08,2.16,2a49.72,49.72,0,0,1,6,9.73,23.79,23.79,0,0,1,1.39,2.16,6.12,6.12,0,0,0,.77,2.32,36.4,36.4,0,0,1,2.32,5.87,21.73,21.73,0,0,1,2.32,11.58,5.25,5.25,0,0,1-2.94,3.86,17.15,17.15,0,0,1-5.09,1.08,37.91,37.91,0,0,1-5.87-.77,38.66,38.66,0,0,1-6.18-.77,25.91,25.91,0,0,0-2.78-.16,9.36,9.36,0,0,1-2.78.78,11.64,11.64,0,0,0-4.63,0,2.37,2.37,0,0,0-3.09-.78h-1.24a3.66,3.66,0,0,0-1.24.78,7,7,0,0,1-4.16-.62,20.7,20.7,0,0,0-7.11,0,3.3,3.3,0,0,0-2.63,4,44.15,44.15,0,0,0,7.11,26q4.32,6.33,11.58,5.72a14.44,14.44,0,0,0,10.2-9.43,6.57,6.57,0,0,1,3.09-5.09,16.21,16.21,0,0,1,6-.77,14.21,14.21,0,0,1,9.42,1.39q3.86,5.55-.62,11.27a11.77,11.77,0,0,1-4.63,4.33q-3.09,2.16-6,4.47a23,23,0,0,1-6.65,2.32c-1.23.31-2.42.57-3.55.77-1.13-.1-2.21-.2-3.24-.31a12.51,12.51,0,0,1-3.4-.15,26.91,26.91,0,0,0-4.17.31A23.11,23.11,0,0,0,659.75,604.55Zm4.63-55,2.47-.62a18.94,18.94,0,0,0,2.63.46c2.26-.2,4.58-.31,6.95-.31a3.62,3.62,0,0,0,4.17-1.23,7.64,7.64,0,0,0-1.08-5.41,80.22,80.22,0,0,0-4.94-11,29.8,29.8,0,0,0-4.48-5.72,3.3,3.3,0,0,0-2.16-.77,9.58,9.58,0,0,0-1.09.93,11.84,11.84,0,0,1-2.62,2,22.12,22.12,0,0,0-7.72,10.2,15.18,15.18,0,0,0-2.47,9.73q1.69,2.31,4.47.92c.93,0,1.91.06,2.94.16A7.17,7.17,0,0,0,664.38,549.57Z" transform="translate(-312.98 -405.38)"/><path class="cls-1" d="M775.74,605a29,29,0,0,0-3.86-.92l-3.71.31a8.69,8.69,0,0,1-5.71-1.39,9.89,9.89,0,0,1-2-6.18,39.29,39.29,0,0,1,.31-8.5,158.06,158.06,0,0,0,0-17.14q-.62-8.49-.62-17.14-.32-8.81-.77-17.61a15.7,15.7,0,0,0-.46-3.71,14.56,14.56,0,0,1-1.24-2.93,4.8,4.8,0,0,0-2.78-4.64,11.24,11.24,0,0,0-8.8,5.41,16.05,16.05,0,0,0-3.71,5.71,11.67,11.67,0,0,0-1.08,3.4,30.33,30.33,0,0,1-.77,3.25,17.45,17.45,0,0,0-.93,3.08q-.47,1.86-.93,3.87a34.84,34.84,0,0,0-.46,8.64q.15,8.65-.46,17.3a134.28,134.28,0,0,0-.78,17,8.62,8.62,0,0,1-1.08,6.64,8.77,8.77,0,0,1-6,1.24,16.42,16.42,0,0,1-13.75-.46,11.94,11.94,0,0,1-1.7-9.73q-.15-8.34.16-16.84a157.93,157.93,0,0,0,.31-17q-.32-8.64-.47-17.45.17-8.34-.46-16.84a10.3,10.3,0,0,1-.15-5.87,5.43,5.43,0,0,1,5.87-1.69,13.86,13.86,0,0,0,3.55-.16,5.35,5.35,0,0,1,2.78-.46,14.34,14.34,0,0,0,2.93,0,6.54,6.54,0,0,1,3.09.46,6.08,6.08,0,0,0,4.33,2.63c2.26-.72,4.53-1.55,6.79-2.47a27.35,27.35,0,0,1,7.73-1.39l8.33-.62a5.26,5.26,0,0,1,1.24.15,1.91,1.91,0,0,1,.31.47,4,4,0,0,0,1.54,0,24,24,0,0,1,5.26,1.23,9.11,9.11,0,0,1,5.56,3.24,26.55,26.55,0,0,1,4,6.49,53,53,0,0,1,4,21v22.7q.47,11.43.92,22.7a41.2,41.2,0,0,1,.62,10Q780.85,605.33,775.74,605Z" transform="translate(-312.98 -405.38)"/><path class="cls-1" d="M825.78,617.06a34.45,34.45,0,0,1-14.36-3.4,34.09,34.09,0,0,1-6-4,23.35,23.35,0,0,1-5.26-4.17q-1.85-3.87,1.47-5.41a15.45,15.45,0,0,1,6.57-1.54,13.85,13.85,0,0,1,13,3.24,9,9,0,0,0,1.7,2.32,11.11,11.11,0,0,0,2.93,1.54,6.41,6.41,0,0,0,5.87,1.08,15.29,15.29,0,0,0,6.18-9.88c.51-2.16.93-4.33,1.24-6.49q-.47-3.39-3.87-2.32a34.68,34.68,0,0,1-6.64.62q-3.85.47-7.56.78a21.59,21.59,0,0,1-13.91-4.18,29.93,29.93,0,0,1-5.56-4.63,18,18,0,0,1-1.85-2.93,9,9,0,0,1-2.32-3.25c-.2-1-.41-2.11-.61-3.24s-.67-2.32-1.08-3.55a68.37,68.37,0,0,1-1.7-8.34,66.92,66.92,0,0,1,.15-16.37,39,39,0,0,1,4.33-14.21,17.5,17.5,0,0,1,4.47-5.1,38.4,38.4,0,0,1,5.87-4.79,40.1,40.1,0,0,1,15.6-2.78l7.88-.31a10,10,0,0,1,3.4.62,2.23,2.23,0,0,0,1.39.46,1.67,1.67,0,0,0,1.23-.15,2,2,0,0,0,1.86-.77,3.08,3.08,0,0,1,2.47-1.08q3.86-.32,8-.31,8-.46,9.27,7.1.15,8.5.77,16.68a83.21,83.21,0,0,1,.15,16.84,3.27,3.27,0,0,0,.31,2.78c.21.31.1.61-.31.92a2.24,2.24,0,0,0-.15,1.39c0,2.68-.11,5.31-.31,7.88q-.32,4.17-.31,8.19c-.41,3-.77,5.92-1.08,8.8-.21,3.19-.41,6.39-.62,9.58a26.91,26.91,0,0,1-.31,4.17,18.62,18.62,0,0,0-.77,2.16,6.86,6.86,0,0,1-1.24,2.78,9.35,9.35,0,0,1-2.31,3.4,36.08,36.08,0,0,1-9.27,5.56,45.86,45.86,0,0,1-5.1,2.16,51.28,51.28,0,0,1-5.09,1.23,9.74,9.74,0,0,1-5.41.62A2.77,2.77,0,0,0,825.78,617.06ZM830,579.38a21.3,21.3,0,0,0,4.95-5.1,23.73,23.73,0,0,0,2.62-7.11,90.44,90.44,0,0,0,1.85-16.83l.93-7.41c0-2.79-.1-5.56-.31-8.35a11.45,11.45,0,0,0-3.09-5.25,16.24,16.24,0,0,0-4.94-3.39,9.3,9.3,0,0,0-5.41-1.7,7.16,7.16,0,0,0-5.55,3.24,58.07,58.07,0,0,0-4.17,4.63,19.57,19.57,0,0,0-3.09,7.11,41.26,41.26,0,0,0-.78,7.88,15.08,15.08,0,0,0,.78,7.72,25.92,25.92,0,0,1,1.39,7.41,31.17,31.17,0,0,0,2.31,8,16,16,0,0,0,4.79,5.72A12.1,12.1,0,0,0,830,579.38Z" transform="translate(-312.98 -405.38)"/><path class="cls-1" d="M897,604.55a36.6,36.6,0,0,1-5.56-1.08c.21.1.31,0,.31-.15a4.64,4.64,0,0,0-3.09-.78,12,12,0,0,1-6-3.7,28.69,28.69,0,0,1-4.63-4.79,36.5,36.5,0,0,1-3.56-7.26,35.62,35.62,0,0,1-2.31-7.57,38.72,38.72,0,0,1-.62-8.49c-.31-2.58-.57-5.2-.77-7.88a49.92,49.92,0,0,1,.15-8.8,53.92,53.92,0,0,1,9-28.42q2.48-2.48,5.25-4.79a33,33,0,0,1,2.78-2.47c1-.52,2.21-1.08,3.55-1.7a25.7,25.7,0,0,1,7-1.55,30.21,30.21,0,0,1,8,.47,47.29,47.29,0,0,1,11.58,2,9.62,9.62,0,0,1,4.63,2.78,4.3,4.3,0,0,0,2,1.54q1.08,1.08,2.16,2a49.76,49.76,0,0,1,6,9.73c.51.72,1,1.44,1.39,2.16a6.12,6.12,0,0,0,.77,2.32A36.4,36.4,0,0,1,937.3,544a21.72,21.72,0,0,1,2.31,11.58,5.24,5.24,0,0,1-2.93,3.86,17.21,17.21,0,0,1-5.1,1.08,38.07,38.07,0,0,1-5.87-.77,39,39,0,0,1-6.18-.77,25.76,25.76,0,0,0-2.78-.16,9.28,9.28,0,0,1-2.78.78,11.64,11.64,0,0,0-4.63,0,2.36,2.36,0,0,0-3.09-.78H905a3.66,3.66,0,0,0-1.24.78,7.08,7.08,0,0,1-4.17-.62,20.7,20.7,0,0,0-7.11,0,3.28,3.28,0,0,0-2.62,4,44.14,44.14,0,0,0,7.1,26q4.34,6.33,11.59,5.72a14.42,14.42,0,0,0,10.19-9.43,6.62,6.62,0,0,1,3.09-5.09,16.21,16.21,0,0,1,6-.77,14.23,14.23,0,0,1,9.43,1.39q3.86,5.55-.62,11.27a11.8,11.8,0,0,1-4.64,4.33c-2.06,1.44-4.06,2.93-6,4.47a23,23,0,0,1-6.64,2.32c-1.24.31-2.42.57-3.55.77-1.14-.1-2.22-.2-3.25-.31a12.45,12.45,0,0,1-3.39-.15,26.73,26.73,0,0,0-4.17.31A23.19,23.19,0,0,0,897,604.55Zm4.64-55,2.47-.62a18.79,18.79,0,0,0,2.62.46c2.27-.2,4.58-.31,7-.31a3.61,3.61,0,0,0,4.16-1.23,7.64,7.64,0,0,0-1.08-5.41,79,79,0,0,0-4.94-11,29.41,29.41,0,0,0-4.48-5.72,3.3,3.3,0,0,0-2.16-.77,10.37,10.37,0,0,0-1.08.93,11.89,11.89,0,0,1-2.63,2,22.26,22.26,0,0,0-7.72,10.2,15.18,15.18,0,0,0-2.47,9.73c1.13,1.54,2.63,1.85,4.48.92.92,0,1.9.06,2.93.16A7.21,7.21,0,0,0,901.62,549.57Z" transform="translate(-312.98 -405.38)"/><path class="cls-1" d="M964,603.32a13.52,13.52,0,0,0-4.63-.78,5.15,5.15,0,0,1-2.93-3.7,21.28,21.28,0,0,1-.31-6.34,49.67,49.67,0,0,0-.16-6.79,71,71,0,0,1,.16-14.06q-.17-6.95-.77-13.9V544.47q-.32-6.94-.16-14.21c-.1-2.16-.15-4.38-.15-6.64a8,8,0,0,1,.92-5.72,9.86,9.86,0,0,1,8.19-2c-.1,0-.16-.11-.16-.31q6.18-1.55,9.58,3.4c.1,2.06,1,3,2.78,2.78a37.18,37.18,0,0,1,4-2.63,20.68,20.68,0,0,1,7.1-1.24,31.55,31.55,0,0,1,8.19.16,7.32,7.32,0,0,0,3.4.46,7.68,7.68,0,0,1,2.78.93q1.53.62,3.24,1.23a14.29,14.29,0,0,0,1.39.62,2.32,2.32,0,0,0,.77.93,5.58,5.58,0,0,1,3.71,3.71,5.39,5.39,0,0,1-1.86,5.71,7.41,7.41,0,0,1-5.56-.31,64.34,64.34,0,0,1-6.79-1.54,8.72,8.72,0,0,0-2.78-.47,4.42,4.42,0,0,0-2.63,1.7,11.25,11.25,0,0,1-2.31,1.55,22.19,22.19,0,0,0-1.7,2.62,27.48,27.48,0,0,0-7.57,11.43q-1.54,7.57-3.09,14.83a34.86,34.86,0,0,0-.31,8q-.32,4.49-.46,8.8c-.31,5.56-.36,11.13-.16,16.68a7.7,7.7,0,0,1-1.7,6.18,28.9,28.9,0,0,0-10,2.17Z" transform="translate(-312.98 -405.38)"/><path class="cls-1" d="M335.37,496.75c-1.43,1.52-1.49,2.15-2.11,4.11a17.72,17.72,0,0,0-1.36,3.88,18,18,0,0,0-.93,4,26.62,26.62,0,0,0,0,5.13,24.27,24.27,0,0,0,1.42,4.9,24.8,24.8,0,0,0,1.84,4.69c.81,1.37,1.25,3,2.26,4.07a20.1,20.1,0,0,0,3.62,3,20.34,20.34,0,0,0,4.26,1.83c2.06.82,4.34,1.36,6.71,2.08,1.21.42,2.23,1.45,3.46,2s2.58.43,3.8,1a18.43,18.43,0,0,1,5.87,2.49c1.86,1.54,3.52,3.3,5.48,4.64a27.13,27.13,0,0,1,3.27,3.44,26.55,26.55,0,0,1,2,4.3c.67,1.42,1.81,2.68,2.25,4.24s0,3.17.22,4.72.76,3.08.8,4.65.33,3.16.23,4.72-1.21,3.05-1.44,4.61a37.48,37.48,0,0,1,0,4.74,33.6,33.6,0,0,1-1.11,4.58c-.41,1.52-.24,3.25-.87,4.71a36.7,36.7,0,0,1-2.25,4.24c-1.18,1.48-2.85,2.42-4.22,3.55a23.14,23.14,0,0,1-4.4,3.23A24.45,24.45,0,0,1,359,602c-1.65.2-3.41-.06-5.16,0-1.45.41-2.86,1.24-4.41,1.54a27.36,27.36,0,0,1-5,0,3.72,3.72,0,0,0-3.3,0c-1.85-.61-3.83-.29-5.89-.19a27.59,27.59,0,0,1-3.78-1.4,28.9,28.9,0,0,1-3.38-2.17,22.77,22.77,0,0,1-4.38-2.12,19.79,19.79,0,0,1-3.81-3c-1.11-1.16-2.58-2.17-3.43-3.61a26.41,26.41,0,0,1-1.18-3.76,26.06,26.06,0,0,1-.75-3.84,24.64,24.64,0,0,0-.29-3.89,16.41,16.41,0,0,1-1.21-3.81c-.21-1.27.36-2.59.36-3.84a22.45,22.45,0,0,1,.44-3.66,4.22,4.22,0,0,1,4.29-2.87,13.7,13.7,0,0,0,3.54-.81,19.7,19.7,0,0,1,3.4-.74c2.27.1,4.34.8,5.47,2.76a54.5,54.5,0,0,1,.45,5.69,49.92,49.92,0,0,1,.44,5.58c0,1.57-.26,3.18.13,4.57s1.84,2.46,2.65,3.72a15.6,15.6,0,0,0,2.73,3.44c1.75,1.49,2.85,2.76,4.3,3.23a12.49,12.49,0,0,0,5.4.19,18,18,0,0,0,4.5-1.7c1.53-.62,3.14-1,4.33-2a14,14,0,0,0,2.74-3.94,15.37,15.37,0,0,0,2-4.35c.31-1.48-.13-3.14-.18-4.85.24-1.77,1-3.52,1-5.32s-.13-3.57-.22-5.37-.56-3.51-.8-5.3-.12-3.33-.73-4.77-1.95-2.53-3-3.78a18.21,18.21,0,0,0-3.25-3.45c-1.13-.46-2.07-1.29-3.17-1.77s-2.48-.44-3.56-1a28.58,28.58,0,0,0-6.38-2.47c-1.18-.36-2.4-.46-3.58-.74s-2.3-.8-3.49-1a10.07,10.07,0,0,1-3.52-.78,10.78,10.78,0,0,1-3.33-1.41,38.28,38.28,0,0,1-4-3.06,30.47,30.47,0,0,1-3.09-4,45,45,0,0,1-4.57-9,33.5,33.5,0,0,1-.76-5,37.63,37.63,0,0,1-.23-5c.1-1.72.17-3.46.38-5.17s.64-3.41,1-5.1.66-3.4,1.11-5.07a35.66,35.66,0,0,1,1.92-4.23,40.1,40.1,0,0,1,2.27-4c.83-1.24,1.88-2.38,2.85-3.65a18.53,18.53,0,0,1,2.48-3,33.24,33.24,0,0,0,3.28-2.11,31.08,31.08,0,0,1,5-3.06c2-1,3.95-2.17,5.43-2.4s3.17-.34,4.77-.57,3.11-.77,4.72-1,3.16-.36,4.77-.57,3.19-.19,4.8-.38,3.14-.54,4.75-.72,3.18-.33,4.79-.5,3.16-.41,4.77-.57,3.24.38,4.85.23,3.11-1.06,4.72-1.2,3.19-.17,4.8-.3,3.25.55,4.86.42l4.78-.41c1.59-.12,3.15-.68,4.76-.8s3.19-.21,4.8-.33,3.18-.18,4.79-.28,3.19-.23,4.8-.33,3.16-.61,4.77-.71,3.19-.22,4.79-.31,3.24.72,4.85.63,3.16-.7,4.77-.78,3.18-.35,4.79-.43,3.19-.27,4.8-.34,3.22.46,4.82.39,3.17-.77,4.78-.84l4.8-.23,4.8-.17c1.59-.06,3.19-.16,4.8-.21s3.21.22,4.81.17,3.21.28,4.82.23,3.17-.76,4.78-.81l4.8-.15c1.6,0,3.21.2,4.82.15s3.2,0,4.8,0,3.21.39,4.82.35,3.19-.21,4.8-.24,3.18-.87,4.79-.9,3.19-.1,4.8-.13,3.21.45,4.81.42,3.2-.12,4.81-.14,3.2.21,4.81.19,3.19-.35,4.8-.37,3.19-.39,4.8-.41,3.2.2,4.81.18,3.2.48,4.81.46,3.19-.67,4.8-.68,3.2-.07,4.81-.08,3.2.46,4.81.45l4.79,0c1.6,0,3.2-.12,4.8-.13s3.2.2,4.8.19,3.2-.36,4.81-.36,3.19-.17,4.8-.17,3.2.31,4.8.31,3.2.11,4.8.11,3.2-.61,4.81-.61,3.2.91,4.8.91,3.2-.65,4.8-.64,3.21-.16,4.81-.16,3.2.26,4.8.26,3.2-.26,4.81-.25,3.19.79,4.79.8,3.21-.79,4.81-.77,3.2,1,4.8,1,3.21-.74,4.81-.73,3.2.72,4.81.74,3.21-.57,4.81-.55,3.21-.13,4.81-.11l4.81.06c1.6,0,3.2.64,4.8.66s3.21-.26,4.82-.24,3.2.51,4.8.54,3.21-.34,4.82-.32,3.21-.34,4.81-.31,3.19.82,4.8.84,3.21-.28,4.81-.26,3.21-.28,4.81-.26,3.21-.06,4.82,0,3.2.43,4.8.46,3.2.14,4.81.17,3.2.25,4.8.28,3.22-.62,4.82-.59,3.19,1,4.79,1,3.22-.54,4.83-.51,3.2.17,4.8.2,3.22-.21,4.82-.18,3.19.65,4.79.69,3.21.26,4.81.3,3.23-.82,4.83-.78,3.19.63,4.79.67,3.22-.3,4.82-.26,3.21-.07,4.81,0l4.81.13c1.61,0,3.2.48,4.8.53s3.2.45,4.8.49,3.22-.59,4.82-.54,3.19.77,4.79.81,3.2.25,4.8.3,3.22-.15,4.81-.11,3.21.23,4.81.28,3.21-.21,4.81-.16,3.2.38,4.8.42,3.21-.07,4.81,0,3.22-.34,4.82-.29,3.21,0,4.8.07,3.21.14,4.81.19,3.21,0,4.8.07,3.2.36,4.8.42,3.21,0,4.8.07,3.21.07,4.81.13,3.2.21,4.8.27,3.19.49,4.79.55,3.22-.27,4.82-.21,3.18.8,4.78.86,3.22-.25,4.81-.19,3.21.41,4.8.47,3.24-.73,4.83-.67,3.21.22,4.81.28,3.18.94,4.77,1,3.25-.78,4.84-.72,3.22.08,4.81.14,3.2.36,4.79.43,3.21.24,4.8.31l4.8.19c1.62.07,3.2.63,4.78.7s3.23-.2,4.82-.14,3.21.18,4.8.24,3.23-.14,4.81-.07,3.2.66,4.77.73,3.23.06,4.81.13,3.25-.45,4.83-.38l4.8.19c1.63.08,3.23.13,4.8.2s3.2.84,4.76.91,3.25-.13,4.81-.06,3.23.49,4.79.56,3.24.12,4.79.19,3.3-.69,4.85-.62,3.26.27,4.79.35c1.68.08,3.27.47,4.78.54,1.71.09,3.29.54,4.78.61,1.75.09,3.37-.28,4.81-.21,1.86.09,3.48-.16,4.81-.09,3.14.16,2.38.24,4.78.31a8.51,8.51,0,0,1,4.1,1.1,8.67,8.67,0,0,1,3,3c.67,1.14.51,2.7.51,4.12a5.73,5.73,0,0,1-3.92,6.46,7.33,7.33,0,0,1-3.72,1.26c-2.41,0-1.66,0-4.81-.06-1.34,0-2.94-.38-4.8-.4-1.45,0-3.06-.09-4.81-.12-1.49,0-3.11.82-4.82.8-1.52,0-3.11-.74-4.8-.76-1.53,0-3.13-.11-4.8-.14s-3.15-.16-4.81-.18-3.17.86-4.82.83-3.16-.07-4.81-.09-3.15-.93-4.79-.95-3.19.69-4.82.67-3.17-.57-4.8-.59-3.18.07-4.81.05-3.19.17-4.81.15-3.18-.25-4.81-.27-3.19.33-4.81.31-3.19.11-4.81.09-3.19-.15-4.81-.17-3.18-.2-4.8-.22-3.19-.33-4.81-.36-3.19-.08-4.8-.1-3.19-.29-4.8-.31-3.2.17-4.81.15-3.2.23-4.81.21-3.19-.22-4.81-.24-3.19,0-4.8,0-3.2.33-4.82.32-3.19-.34-4.8-.36-3.2.35-4.81.33-3.2-.07-4.81-.09-3.19-.35-4.8-.37-3.2,0-4.81,0-3.2.11-4.81.09-3.2-.26-4.81-.28-3.2.38-4.81.36-3.2-.16-4.81-.17-3.19-.34-4.8-.36-3.2-.54-4.8-.56-3.21.54-4.82.52-3.2-.35-4.81-.36-3.2.21-4.81.19-3.2.28-4.81.26l-4.81-.07c-1.6,0-3.19-.64-4.8-.66s-3.21.66-4.82.65-3.2-.08-4.81-.1-3.2-.34-4.8-.35l-4.81-.05c-1.6,0-3.2-.34-4.8-.36s-3.21.73-4.81.71-3.2-.55-4.8-.56-3.21.08-4.81.06l-4.81,0c-1.6,0-3.2.37-4.81.35s-3.19-.55-4.8-.56-3.2.28-4.81.27-3.2-.42-4.8-.44-3.21.05-4.81,0-3.21.53-4.81.51-3.2-.88-4.81-.89-3.2-.16-4.8-.17-3.21.1-4.81.09-3.21.62-4.82.61-3.2-.28-4.81-.3-3.2.15-4.8.14-3.21-.26-4.81-.27-3.21.53-4.81.52-3.2-.23-4.81-.24-3.2-.6-4.8-.61-3.21,0-4.81,0-3.21.4-4.82.39-3.2-.13-4.81-.14-3.2-.31-4.81-.31-3.21-.15-4.81-.16-3.21.43-4.82.42-3.21,0-4.81,0-3.21-.46-4.81-.47-3.22.58-4.82.57-3.21.11-4.82.1-3.21-.9-4.81-.9-3.21.18-4.82.17-3.21.7-4.82.7-3.21-.75-4.81-.76-3.22.49-4.82.49-3.22.09-4.82.09-3.21-.06-4.82-.06-3.21-.58-4.82-.58-3.21.22-4.81.22-3.21.31-4.81.31-3.21-.09-4.81-.1-3.21,0-4.81,0h-4.81c-1.61,0-3.21-.24-4.82-.24s-3.21.06-4.81.06h-4.81c-1.61,0-3.21-.25-4.81-.25s-3.21.06-4.81.06-3.21,0-4.81,0-3.22-.1-4.82-.09-3.21.49-4.81.49-3.21.28-4.81.28-3.21-.08-4.81-.07-3.22-.41-4.82-.4-3.21-.34-4.81-.34-3.21.7-4.81.7-3.22-.31-4.81-.3-3.22-.23-4.82-.22-3.21.51-4.81.52-3.21.32-4.81.33-3.22-.6-4.82-.59-3.21-.11-4.81-.09-3.21.59-4.81.6-3.22-.67-4.82-.65-3.21.15-4.81.16-3.21-.06-4.81,0-3.21.21-4.81.23S464.54,487,463,487s-3.21.68-4.8.7-3.23-.5-4.82-.48-3.21.61-4.81.63l-4.81,0c-1.62,0-3.23-.57-4.82-.54s-3.22.46-4.81.49-3.23-.13-4.82-.11-3.21.43-4.8.46l-4.82.07c-1.62,0-3.23-.25-4.81-.22s-3.22.4-4.81.44-3.21.23-4.8.27-3.23,0-4.81,0-3.24-.54-4.82-.49-3.21.8-4.79.84-3.25-.53-4.83-.48-3.22.31-4.8.37-3.25-.22-4.82-.16-3.2,1.06-4.77,1.12-3.24,0-4.8.07-3.27-.36-4.83-.28-3.26.07-4.81.15-3.21.93-4.75,1-3.26.16-4.79.27a27.83,27.83,0,0,0-3.06.24c-.84.2-1.19.45-3.12,1.09-2.44.8-1.95,1.19-2.68,1.61A13,13,0,0,0,335.37,496.75Z" transform="translate(-312.98 -405.38)"/><path class="cls-2" d="M373.29,481.67a4.88,4.88,0,0,1-1-.11c-.41-.09-.81-.16-1.18-.21l-1.55.17a11.23,11.23,0,0,1-1.34.08,10.59,10.59,0,0,1-4.72-1.1,5.15,5.15,0,0,1-1.35-1,9.29,9.29,0,0,1-2.69-6,21,21,0,0,1,0-4.89,59.84,59.84,0,0,0-.31-7.31c-.36-2.79-.6-5.64-.72-8.5-.19-2.34-.41-4.69-.64-7a2,2,0,0,0-.23.43,4,4,0,0,1-.24.51s0,.11,0,.14a16.08,16.08,0,0,1-.53,2.2,3.9,3.9,0,0,1-.17.48,2.39,2.39,0,0,0-.16.5l-.06.27q-.19.78-.39,1.62a8.86,8.86,0,0,0,0,2.57l0,.32a87.07,87.07,0,0,1,.08,8.85c0,.08,0,.15,0,.23a51,51,0,0,0-.12,7,8.57,8.57,0,0,1-1.34,6.81,4.88,4.88,0,0,1-1.65,1.51,10.7,10.7,0,0,1-5.12,1.41,16.85,16.85,0,0,1-4.91.76,15.56,15.56,0,0,1-5.46-1,4.86,4.86,0,0,1-2-1.39,9.94,9.94,0,0,1-2.44-8.24c-.15-2.57-.22-5.19-.21-7.8v-.21a57.27,57.27,0,0,0-.14-7.53c-.24-2.8-.45-5.65-.62-8.5a1.48,1.48,0,0,1,0-.21,69.21,69.21,0,0,0-.49-7,9.29,9.29,0,0,1-.14-5.3,5,5,0,0,1,1.23-2.18,8.28,8.28,0,0,1,6.07-2.56,8.86,8.86,0,0,1,1.25.09l.38,0a8.55,8.55,0,0,1,2.65-.43h.62c.19,0,.39,0,.61,0a8.88,8.88,0,0,1,1.15-.07,9.21,9.21,0,0,1,2.64.38,5,5,0,0,1,1.35.62c.6-.21,1.2-.43,1.8-.67l.27-.09a23.85,23.85,0,0,1,5.49-1.08l4.68-.48.31,0h.35a9.27,9.27,0,0,1,1.38.11,4.71,4.71,0,0,1,.54.12h0a21.73,21.73,0,0,1,3.65.54,10.51,10.51,0,0,1,5.75,2.71,17.56,17.56,0,0,1,3.34,4.19l.06.11a27.1,27.1,0,0,1,3.31,12.25l.44,10.71.93,10.39a22.12,22.12,0,0,1,.6,5.81,4.9,4.9,0,0,1-.42,1.85,8.72,8.72,0,0,1-8.39,5.15Z" transform="translate(-312.98 -405.38)"/><path class="cls-1" d="M373.33,476.67a18.93,18.93,0,0,0-2.22-.36l-2.11.24a5.71,5.71,0,0,1-3.3-.53,4.3,4.3,0,0,1-1.27-2.93,16,16,0,0,1,0-4.09,63.38,63.38,0,0,0-.34-8.24q-.51-4.06-.69-8.23c-.23-2.81-.49-5.63-.79-8.44a6,6,0,0,0-.33-1.77,6.54,6.54,0,0,1-.77-1.39,2.28,2.28,0,0,0-1.68-2.16,6.68,6.68,0,0,0-4.92,2.81,7.75,7.75,0,0,0-2,2.83,4.92,4.92,0,0,0-.55,1.66,12.58,12.58,0,0,1-.38,1.58,7.86,7.86,0,0,0-.47,1.5c-.15.6-.3,1.23-.45,1.88a13.9,13.9,0,0,0-.09,4.17,79.8,79.8,0,0,1,.07,8.33,53.21,53.21,0,0,0-.1,8.18,3.63,3.63,0,0,1-.49,3.22,5.91,5.91,0,0,1-3.42.74,11.07,11.07,0,0,1-7.87.1,5,5,0,0,1-1.16-4.64q-.25-4-.24-8.1a63.6,63.6,0,0,0-.16-8.17c-.23-2.77-.44-5.56-.61-8.38a74.11,74.11,0,0,0-.6-8.09,4.19,4.19,0,0,1-.2-2.81,3.49,3.49,0,0,1,3.32-1,9,9,0,0,0,2-.16,3.62,3.62,0,0,1,1.58-.28,9.53,9.53,0,0,0,1.67-.07,4.33,4.33,0,0,1,1.78.15,3.68,3.68,0,0,0,2.52,1.16q1.92-.6,3.84-1.35a19.09,19.09,0,0,1,4.38-.85l4.76-.49a4.29,4.29,0,0,1,.71,0,.85.85,0,0,1,.18.22,2.43,2.43,0,0,0,.89,0,15.94,15.94,0,0,1,3,.48,5.46,5.46,0,0,1,3.24,1.42,12.75,12.75,0,0,1,2.43,3,22.11,22.11,0,0,1,2.71,10l.45,10.92c.32,3.65.65,7.28,1,10.89a16.59,16.59,0,0,1,.55,4.81Q376.26,476.71,373.33,476.67Z" transform="translate(-312.98 -405.38)"/><path class="cls-2" d="M401.87,478.32a5.06,5.06,0,0,1-1.92-.38,4.86,4.86,0,0,1-.93-.14c-.75-.17-1.48-.35-2.17-.53l-.13,0c-.35-.1-.69-.2-1-.28a14.42,14.42,0,0,1-2.68-.42l-.29-.08a19,19,0,0,1-8.84-5.9c-.1-.13-.19-.25-.28-.39a26.36,26.36,0,0,1-4.71-16.28,38.08,38.08,0,0,1,2.86-17.16,2.64,2.64,0,0,1,.18-.38,19.37,19.37,0,0,1,6.9-7.48,5.32,5.32,0,0,1,.66-.37,37.29,37.29,0,0,1,4.3-1.6,30.57,30.57,0,0,1,5.39-1.42,5.4,5.4,0,0,1,.8-.07l4.18,0h.18a14,14,0,0,1,2.31.29,14.24,14.24,0,0,1,2.43.21,4.8,4.8,0,0,1,1.48.5,9.8,9.8,0,0,1,2.39.67l.29.13a15.86,15.86,0,0,1,4.5,3.28l.12.14a9.23,9.23,0,0,0,1.47,1.31,4.71,4.71,0,0,1,.71.62,11.1,11.1,0,0,1,2.81,5.11l2.81,7.09.12.35a24.08,24.08,0,0,1,1,9.76,37.16,37.16,0,0,1-1.36,8.8c-.06.19-.12.38-.2.57a22.2,22.2,0,0,1-5.34,7.66,13.33,13.33,0,0,1-3.54,2.87,18.24,18.24,0,0,1-4.89,2.17l-.26.06c-1.56.34-3.15.6-4.72.78l-.35,0-1.36,0h-.3l-1.28.34A4.87,4.87,0,0,1,401.87,478.32ZM400,456.6a25.8,25.8,0,0,0,1.17,3,4.82,4.82,0,0,1,.22.57,1.6,1.6,0,0,0,.64.81,10.52,10.52,0,0,0,1.49,1l.06,0a6.18,6.18,0,0,1,.37-.61,14.59,14.59,0,0,0,1.56-2.63,21.92,21.92,0,0,0,.81-2.49l.08-1.32a16.06,16.06,0,0,1,.26-2.19,17.53,17.53,0,0,0-1.07-5.5c0-.1-.07-.21-.1-.31a14.33,14.33,0,0,0-1-2.55l-.12-.26a8.17,8.17,0,0,0-1.07-1.78l-.49-.48a4,4,0,0,0-1.75,2.06c0,.09-.07.18-.11.27a4,4,0,0,0-.39,1.67,4.89,4.89,0,0,1-.08.85q-.35,1.94-.69,3.81A21.79,21.79,0,0,0,400,456.6Z" transform="translate(-312.98 -405.38)"/><path class="cls-1" d="M401.87,473.32a4.73,4.73,0,0,0-1.7-.38l-2.05-.51c-.6-.17-1.17-.32-1.7-.45a9.53,9.53,0,0,1-2.14-.29,13.89,13.89,0,0,1-6.54-4.34,21.39,21.39,0,0,1-3.83-13.53,33,33,0,0,1,2.47-15.2,14.52,14.52,0,0,1,5.17-5.56,32.21,32.21,0,0,1,3.83-1.43A26.67,26.67,0,0,1,400,430.4l4.15,0a8.93,8.93,0,0,1,2,.29,10.18,10.18,0,0,1,2.13.14,3.31,3.31,0,0,0,1.17.47,5,5,0,0,1,1.6.38,11,11,0,0,1,3.1,2.25,13.76,13.76,0,0,0,2.3,2.07,6.09,6.09,0,0,1,1.63,3.13c1,2.49,2,5,3,7.46a19.21,19.21,0,0,1,.77,7.93,31.66,31.66,0,0,1-1.19,7.78,17.07,17.07,0,0,1-4.34,6.13,8.52,8.52,0,0,1-2.48,2,13.42,13.42,0,0,1-3.65,1.64c-1.4.3-2.81.53-4.22.69-.7,0-1.38,0-2,0C403.18,473,402.51,473.14,401.87,473.32Zm2.14-6a1.44,1.44,0,0,0,1.32-.27,1.15,1.15,0,0,1,.78-.33c-.06.05-.12,0-.18-.07a9.07,9.07,0,0,1,1-1.08,4.87,4.87,0,0,0,1-1.31,19,19,0,0,0,2.15-3.66,28.77,28.77,0,0,0,1.18-3.69c0-.6.06-1.19.1-1.79a12.48,12.48,0,0,1,.27-2,21.94,21.94,0,0,0-1.38-7.68,19,19,0,0,0-1.38-3.44,13.75,13.75,0,0,0-2-3.19,12.46,12.46,0,0,1-1.2-1.21,6.43,6.43,0,0,0-1.29-1.14,4.88,4.88,0,0,0-3.6.67,9.26,9.26,0,0,0-4.48,4.94,9.14,9.14,0,0,0-.82,3.68c-.24,1.35-.48,2.67-.72,4a26.79,26.79,0,0,0,.33,8.1,31,31,0,0,0,1.49,3.88A6.57,6.57,0,0,0,399,465a15.06,15.06,0,0,0,3.17,1.88A3.26,3.26,0,0,0,404,467.35Z" transform="translate(-312.98 -405.38)"/><path class="cls-2" d="M435.39,475.27a5,5,0,0,1-1.28-.16,7.46,7.46,0,0,1-5.61-5.63,8.07,8.07,0,0,1-.06-3.46l-.05-1.3c-.23-2.83-.35-5.7-.35-8.53-.22-5.5-.36-11.09-.42-16.62l-.08-2.15c-1.51,0-3-.12-4.41-.25h0a7.76,7.76,0,0,1-6.61-3.32,5,5,0,0,1-.56-1.1,6.19,6.19,0,0,1,.43-5.54,6.49,6.49,0,0,1,5-3,36.12,36.12,0,0,0,3.64-.74,6.27,6.27,0,0,1,.85-.14c.39,0,.79,0,1.18-.06-.1-2.4-.22-4.85-.37-7.29a12,12,0,0,1-.09-4.77,4.89,4.89,0,0,1,.81-1.94,8.16,8.16,0,0,1,6.47-3.54,13.22,13.22,0,0,1,3-.36,10.88,10.88,0,0,1,6.85,2.39,5.07,5.07,0,0,1,1.73,2.73,16.42,16.42,0,0,1,.38,5.54,35.24,35.24,0,0,1,.36,3.74,4.42,4.42,0,0,1,0,.63c-.08.91-.11,1.83-.1,2.74l1.73.08a13.52,13.52,0,0,1,1.42-.08,11.82,11.82,0,0,1,3.69.59,5.22,5.22,0,0,1,1.51.8,6.52,6.52,0,0,1,1.86,8.46,3.37,3.37,0,0,1-.19.32,8.55,8.55,0,0,1-6,3.83l-.24,0a21.59,21.59,0,0,1-2.53.15l-1.09,0c0,.73.08,1.45.11,2.17,0,0,.32,7.76.32,7.82,0,4.95.21,9.95.52,14.86,0,0,.13,3.13.13,3.13a9.29,9.29,0,0,1-.51,5.84,5,5,0,0,1-1.08,1.6,7.94,7.94,0,0,1-5.71,2.32h-.31c-1.43.15-2.88.22-4.32.23Z" transform="translate(-312.98 -405.38)"/><path class="cls-1" d="M435.39,470.27a2.5,2.5,0,0,1-2-1.92,3.05,3.05,0,0,1,.1-1.79l-.09-2.15q-.35-4.16-.34-8.32-.35-8.31-.42-16.64l-.16-3.86a15.32,15.32,0,0,1-.15-1.71,1.08,1.08,0,0,0-.59-1.31c-1.3-.1-2.57-.14-3.81-.14-1.59,0-3.13-.12-4.61-.26a2.9,2.9,0,0,1-2.7-1.15c-.39-1.08.08-1.69,1.43-1.85a41.24,41.24,0,0,0,4.21-.84,20.17,20.17,0,0,1,4.25.12c1.19.15,1.85-.3,2-1.34-.11-1.29-.25-2.57-.42-3.85q-.17-4-.42-8a7,7,0,0,1-.13-3.12,3.31,3.31,0,0,1,3-1.39,6.33,6.33,0,0,1,6,.95,11.12,11.12,0,0,1,.18,4.45,28,28,0,0,1,.43,3.85,34.16,34.16,0,0,0-.1,4.17,8.49,8.49,0,0,0,.14,3.42,2.38,2.38,0,0,0,2.77.55c1.29,0,2.62,0,4,.14a7,7,0,0,1,3.37.23,1.52,1.52,0,0,1,.53,2.13,3.61,3.61,0,0,1-2.59,1.6,16.1,16.1,0,0,1-3.8,0,7.65,7.65,0,0,0-3.94.91,3.07,3.07,0,0,0-.42,2.7c.11,1.28.19,2.57.25,3.85l.31,7.65q0,7.59.53,15.15l.15,3.57a4.35,4.35,0,0,1-.14,3.12,3.09,3.09,0,0,1-2.61.86C438.22,470.18,436.81,470.26,435.39,470.27Z" transform="translate(-312.98 -405.38)"/><path class="cls-2" d="M472.47,474a28.61,28.61,0,0,1-3.68-.43,5.86,5.86,0,0,1-1-.26l-.22-.08a5,5,0,0,1-.54-.07,12.07,12.07,0,0,1-5.62-2.53,20.24,20.24,0,0,1-3.33-2.72c-.1-.1-.2-.21-.29-.32a21.6,21.6,0,0,1-2.75-4.27,20.56,20.56,0,0,1-1.87-4.6,21.37,21.37,0,0,1-.69-4.9c-.21-1.17-.4-2.38-.56-3.59a26,26,0,0,1-.13-5.08,28.18,28.18,0,0,1,5.5-16.59,4.65,4.65,0,0,1,.69-.78c1-.88,2-1.75,3.08-2.58.54-.48,1.14-1,1.78-1.44a4.64,4.64,0,0,1,.83-.49q.93-.43,2.13-1l.28-.12a22,22,0,0,1,5.11-1.17,24.52,24.52,0,0,1,2.69-.15,25.66,25.66,0,0,1,2.76.15,37.88,37.88,0,0,1,7.36.79,10.81,10.81,0,0,1,4.81,2.21,5,5,0,0,1,1.14.67q.48.38,1,.69a4.26,4.26,0,0,1,.74.59,28.77,28.77,0,0,1,4.15,5.1c.3.34.58.68.84,1a5.07,5.07,0,0,1,.77,1.52,20.33,20.33,0,0,1,1.6,3,13.87,13.87,0,0,1,2.09,8.07,4.6,4.6,0,0,1-.11.83,7.59,7.59,0,0,1-4.47,5.42l-.31.13c-.31.11-.61.21-.92.3a14.45,14.45,0,0,1,1.8.57,4.87,4.87,0,0,1,1.91,1.32c3.17,3.54,3.22,8,.14,11.8a11.38,11.38,0,0,1-4.05,3.5c-1,.65-2,1.33-2.92,2a4.25,4.25,0,0,1-.74.44,19.33,19.33,0,0,1-4.85,1.66c-.74.19-1.46.35-2.14.49a5.31,5.31,0,0,1-1,.09h-.19l-1.52-.06c-.38,0-.77,0-1.15,0s-.7,0-1.05,0a12.45,12.45,0,0,0-1.43.17,6,6,0,0,1-.84.07h-.37a10.68,10.68,0,0,0-2.86.38,4.79,4.79,0,0,1-1.35.19Zm3.74-15.75a2.22,2.22,0,0,0,1.84.8h.17a2.87,2.87,0,0,0,1.74-1.28,8.2,8.2,0,0,1,3.88-5.33,5,5,0,0,1,1.07-.5c.26-.09.53-.16.8-.23-.49,0-1-.09-1.43-.15H484a10.41,10.41,0,0,1-1.82.41,4.78,4.78,0,0,1-.66,0,4.4,4.4,0,0,1-.62,0l-.38,0a3.08,3.08,0,0,0-.61.06,4.57,4.57,0,0,1-1,.11,5,5,0,0,1-1.4-.2,4.52,4.52,0,0,1-1,.27,9.92,9.92,0,0,1-1.62.13,9.71,9.71,0,0,1-1.71-.15A14.14,14.14,0,0,0,476.21,458.24Zm-.52-21.14.48,0-.27-.39a5.14,5.14,0,0,0-.42.38Z" transform="translate(-312.98 -405.38)"/><path class="cls-1" d="M472.73,469a25.17,25.17,0,0,1-3.2-.39c.12,0,.18,0,.17-.08a3,3,0,0,0-1.78-.3,7.1,7.1,0,0,1-3.51-1.64,15,15,0,0,1-2.75-2.2,16.47,16.47,0,0,1-2.17-3.4,15.3,15.3,0,0,1-2-7.65c-.23-1.23-.43-2.49-.6-3.77a20.64,20.64,0,0,1-.09-4.24,23.25,23.25,0,0,1,4.56-13.87q1.36-1.24,2.91-2.43c.46-.41,1-.83,1.54-1.25.58-.27,1.24-.57,2-.9a16.81,16.81,0,0,1,3.94-.91,20.23,20.23,0,0,1,4.6,0,32.28,32.28,0,0,1,6.66.69,5.9,5.9,0,0,1,2.7,1.23,2.4,2.4,0,0,0,1.18.7c.43.33.85.63,1.28.91a23.5,23.5,0,0,1,3.63,4.54,12.38,12.38,0,0,1,.84,1,2.59,2.59,0,0,0,.49,1.1,16.9,16.9,0,0,1,1.44,2.77,9,9,0,0,1,1.55,5.51,2.65,2.65,0,0,1-1.6,1.93,11.86,11.86,0,0,1-2.89.64,27.27,27.27,0,0,1-3.37-.24,27,27,0,0,1-3.55-.22,14.06,14.06,0,0,0-1.59,0,6.09,6.09,0,0,1-1.58.43,8.07,8.07,0,0,0-2.64.11,1.51,1.51,0,0,0-1.79-.3l-.7,0a2.24,2.24,0,0,0-.69.4,4.66,4.66,0,0,1-2.4-.2,14.18,14.18,0,0,0-4.06.17c-1.16.34-1.64,1-1.42,2a18.77,18.77,0,0,0,4.57,12.31,7.35,7.35,0,0,0,6.74,2.47,7.86,7.86,0,0,0,5.64-4.76,3.16,3.16,0,0,1,1.66-2.53,11.06,11.06,0,0,1,3.43-.51,9.58,9.58,0,0,1,5.41.45q2.31,2.58-.13,5.43a6.41,6.41,0,0,1-2.56,2.19c-1.15.74-2.27,1.51-3.36,2.3a15.06,15.06,0,0,1-3.75,1.26c-.7.18-1.37.33-2,.46l-1.86-.07a9.08,9.08,0,0,1-1.95,0,19.77,19.77,0,0,0-2.37.25A15.39,15.39,0,0,0,472.73,469Zm1.56-26.54,1.4-.36a11.84,11.84,0,0,0,1.51.16c1.29-.15,2.62-.25,4-.31a2.33,2.33,0,0,0,2.36-.69,3.19,3.19,0,0,0-.73-2.57,35.15,35.15,0,0,0-3-5.16,14.53,14.53,0,0,0-2.67-2.64,2.11,2.11,0,0,0-1.25-.32,5.23,5.23,0,0,0-.6.47,7.17,7.17,0,0,1-1.46,1,11,11,0,0,0-4.21,5.08,6.4,6.4,0,0,0-1.22,4.73,2,2,0,0,0,2.57.34c.53,0,1.09,0,1.68,0A5,5,0,0,0,474.29,442.46Z" transform="translate(-312.98 -405.38)"/><path class="cls-2" d="M521.3,472.82a4.73,4.73,0,0,1-.83-.07c-1-.17-2.1-.3-3.21-.39l-.19,0c-1.32-.15-2.66-.36-4-.62a16.85,16.85,0,0,1-4.42-1.27,5.35,5.35,0,0,1-.74-.41h0a7.77,7.77,0,0,1-1.19-.43,5.68,5.68,0,0,1-1.36-.91,5,5,0,0,1-.71-.45,7.73,7.73,0,0,1-2.22-2.69,8.67,8.67,0,0,1-.9-1.67,11.38,11.38,0,0,1-1.15-2l-.11-.26a6.82,6.82,0,0,1,2.3-8,5,5,0,0,1,1.6-.84,17.08,17.08,0,0,1,3.5-.69,14.61,14.61,0,0,1-5.1-3.22l-.19-.19a10.37,10.37,0,0,1-2.74-5.59c-.2-1.49-.32-2.94-.38-4.39a4.1,4.1,0,0,1,0-.7,20.54,20.54,0,0,1,11.18-15.58l.12-.06a16,16,0,0,1,5-1.29,41.07,41.07,0,0,1,5-.66l.32,0h1.26c1.16,0,2.33,0,3.49,0h.15a30.7,30.7,0,0,1,5.65.84,4.34,4.34,0,0,1,.72.24,9.82,9.82,0,0,1,3.13.61l.17.07a21.61,21.61,0,0,1,4.27,2.37,14.56,14.56,0,0,1,5.62,6.06l.15.34a8,8,0,0,1-.45,7.12,5.22,5.22,0,0,1-1.25,1.44,7,7,0,0,1-6.24,1.36l1.51.75a5.1,5.1,0,0,1,.8.5,12.58,12.58,0,0,1,1.69,1.6c.32.31.64.61.95.89l.14.12a9.88,9.88,0,0,1,2.39,3.51,18,18,0,0,1,1.34,4.58,25.1,25.1,0,0,1,.51,5,5,5,0,0,1-.09.94c-.79,4.11-3.38,9.52-11.23,12-1.22.35-2.33.63-3.39.84a5,5,0,0,1-.77.09l-3,.12a23.84,23.84,0,0,1-3.75.45h-.21l-.42,0h-.23a1.37,1.37,0,0,0-.56.1A5,5,0,0,1,521.3,472.82Zm.6-14.86a4.7,4.7,0,0,1,.92.09,18,18,0,0,1,1.86.45l0,0a4.78,4.78,0,0,0,1.27-1.82,11.55,11.55,0,0,1-.28-2.26c-.55-.31-1.13-.6-1.73-.87a5.06,5.06,0,0,0-2-.36h-.27l-1.2,0a26.71,26.71,0,0,1-2.68-.13,6.84,6.84,0,0,1,2.42,3.68,2.31,2.31,0,0,0,1.34,1.21h.26Zm5.84-18.66,1.08,0,.33,0c.83.08,1.66.2,2.46.33l.33.07a11,11,0,0,0,1.47.24l.26,0c.84.12,1.71.28,2.62.45l.09,0h0c-.94-.27-1.86-.55-2.77-.83a13.59,13.59,0,0,1-4.37-1.47,10.3,10.3,0,0,1-1.91-1.15,5,5,0,0,1-1.25-1.43c-.14-.25-.28-.51-.41-.77l-.19-.1a4.81,4.81,0,0,1-.93.09,3.77,3.77,0,0,0-1.44.28,9.56,9.56,0,0,0-1.93,1.66,4,4,0,0,0-1,1.65l.3.08.18.05a9.28,9.28,0,0,0,2.16.35h.64l1,0h.2a4.91,4.91,0,0,1,1.27.16c.37.09.75.18,1.15.26Z" transform="translate(-312.98 -405.38)"/><path class="cls-1" d="M521.3,467.82c-1.19-.2-2.4-.34-3.64-.44s-2.49-.35-3.74-.59a12.14,12.14,0,0,1-3.22-.91,5.7,5.7,0,0,0-1.81-.78.94.94,0,0,1-.21-.15,2.45,2.45,0,0,0-1-.66,2.83,2.83,0,0,1-.94-1.3,3.58,3.58,0,0,1-.77-1.53,6.14,6.14,0,0,1-1-1.59,1.83,1.83,0,0,1,.7-2.26,12.32,12.32,0,0,1,4.05-.54,26,26,0,0,1,4.4-.41,2,2,0,0,1,1.4,1.58,7.31,7.31,0,0,0,4.42,4.43,5.37,5.37,0,0,0,2,.29,16.4,16.4,0,0,1,2,.52,5.18,5.18,0,0,0,3.93-1.06,9.72,9.72,0,0,0,3.24-5.19,5.32,5.32,0,0,0-.16-1.63,5.56,5.56,0,0,1-.16-1.7,5.46,5.46,0,0,0-1.82-3.42A24.64,24.64,0,0,0,526,449a10,10,0,0,0-4.45-.78,24.26,24.26,0,0,1-4.25-.2,28.26,28.26,0,0,0-4.6.11,10,10,0,0,1-6.66-2.77,5.35,5.35,0,0,1-1.44-2.92c-.17-1.28-.28-2.56-.34-3.85A15.63,15.63,0,0,1,512.64,427a11.23,11.23,0,0,1,3.68-.89,37.33,37.33,0,0,1,4.66-.64c1.53,0,3.06,0,4.6,0a24.24,24.24,0,0,1,4.71.7,2.54,2.54,0,0,0,1.52.38,4.66,4.66,0,0,1,1.78.3A16.54,16.54,0,0,1,537,428.8a9.52,9.52,0,0,1,3.88,4.08,3,3,0,0,1-.15,2.76,2.12,2.12,0,0,1-2.55.18c-1.2-.35-2.36-.7-3.5-1.05a8.44,8.44,0,0,1-3.22-1.06,5.11,5.11,0,0,1-1.09-.62,9.88,9.88,0,0,1-.68-1.46,2.31,2.31,0,0,0-1.82-1.27,4.06,4.06,0,0,0-3.38-.53,8.38,8.38,0,0,0-3.86.91,14.47,14.47,0,0,0-3.24,2.73,8.56,8.56,0,0,0-2.33,5.75q.57,3.25,4.24,4.14a14.58,14.58,0,0,0,3.29.53c.65,0,1.33,0,2,0,.66.17,1.34.31,2.05.43s1.3,0,1.95,0,1.42.16,2.13.28a16.21,16.21,0,0,0,2.14.36c.77.12,1.57.26,2.41.42.48.23,1,.48,1.53.76a7.3,7.3,0,0,1,1.1,1.07c.43.43.86.83,1.29,1.21a4.94,4.94,0,0,1,1.23,1.81,13.3,13.3,0,0,1,1,3.52,20.1,20.1,0,0,1,.43,4.15q-1.17,6.08-7.8,8.13c-1,.29-1.95.53-2.89.72l-3.35.13a19.1,19.1,0,0,1-3.35.44A6.51,6.51,0,0,0,521.3,467.82Z" transform="translate(-312.98 -405.38)"/></svg>